# xmcd
#
# Track frame offsets:
#	150
#	31280
#	43275
#	82467
#	95927
#	109697
#	124092
#	138647
#	154077
#	168490
#	183957
#	196542
#	215392
#	236957
#	249235
#	263572
#	276940
#	299335
#
# Disc length: 4323 seconds
#
# Revision: 2
# Processed by: cddbd v1.5.1PL0 Copyright (c) Steve Scherf et al.
# Submitted via: audiograbber 1.83.01
#
DISCID=1010e112
DTITLE=Various Artist - Atlantic Rhythm And Blues 1947-1974 Volume 7 (1969-1974)
DYEAR=1985
DGENRE=Rhythm and Blues
TTITLE0=Donny Hathaway - The Ghetto
TTITLE1=Tyrone Davis - Turn Back The Hands Of Time
TTITLE2=Les McCann and Eddie Harris - Compared To What
TTITLE3=Aretha Franklin - Don't Play That Song (You Lied)
TTITLE4=King Floyd - Groove Me
TTITLE5=Clarence Carter - Patches
TTITLE6=Beginning Of The End - Funky Nassau (Part 1)
TTITLE7=Persuaders - Thin Line Between Love And Hate
TTITLE8=Aretha Franklin - Rock Steady
TTITLE9=Roberta Flack and Donny Hathaway - You've Got A Friend
TTITLE10=Betty Wright - Clean Up Woman
TTITLE11=Spinners - Could It Be I'm Falling In Love
TTITLE12=Roberta Flack - Killing Me Softly With His Song
TTITLE13=Roberta Flack and Donny Hathaway - Where Is The Love?
TTITLE14=Spinners - I'll Be Around
TTITLE15=Roberta Flack - Feel Like Makin' Love
TTITLE16=Spinners - Mighty Love
TTITLE17=Major Harris - Love Won't Let Me Wait
EXTD=
EXTT0=
EXTT1=
EXTT2=
EXTT3=
EXTT4=
EXTT5=
EXTT6=
EXTT7=
EXTT8=
EXTT9=
EXTT10=
EXTT11=
EXTT12=
EXTT13=
EXTT14=
EXTT15=
EXTT16=
EXTT17=
PLAYORDER=
